<svg xmlns="http://www.w3.org/2000/svg" width="800" height="500">
  <path
    style="opacity:1;fill:#FFFFFF;fill-rule:evenodd;stroke:#FFFFFF;stroke-width:0.5px;stroke-linecap:butt;stroke-linejoin:miter;stroke-opacity:1;"
    d="M 991.0 0.5 L 991.0 0.0 L 1301.5 0.0 L 1612.0 0.0 L 1612.0 310.0 L 1612.0 620.0 L 806.0 620.0 L 0.0 620.0 L 0.0 494.5 L 0.0 369.0 L 29.5 369.0 L 59.0 369.0 L 59.2 367.5 Q 59.5 366.0 59.8 251.0 L 60.0 136.0 L 109.0 136.8 Q 158.0 137.5 165.8 139.8 Q 173.5 142.0 177.5 146.0 Q 181.5 150.0 183.5 156.5 Q 185.5 163.0 185.0 174.0 Q 184.5 185.0 182.0 190.0 Q 179.5 195.0 175.2 198.2 Q 171.0 201.5 162.5 204.0 Q 154.0 206.5 129.5 207.0 L 105.0 207.5 L 104.5 207.5 L 104.0 207.5 L 103.0 207.2 L 102.0 207.0 L 102.2 208.5 L 102.5 210.0 L 103.0 211.0 L 103.5 212.0 L 147.8 290.2 Q 192.0 368.5 336.5 368.0 Q 481.0 367.5 495.2 363.8 Q 509.5 360.0 516.2 356.2 Q 523.0 352.5 530.2 345.2 Q 537.5 338.0 542.0 328.5 Q 546.5 319.0 548.5 308.5 Q 550.5 298.0 550.0 279.0 Q 549.5 260.0 545.8 248.8 Q 542.0 237.5 536.0 229.5 Q 530.0 221.5 521.5 216.5 Q 513.0 211.5 501.5 208.5 Q 490.0 205.5 429.0 204.0 Q 368.0 202.5 361.0 199.5 Q 354.0 196.5 349.8 191.2 Q 345.5 186.0 344.5 182.5 Q 343.5 179.0 344.0 170.5 Q 344.5 162.0 347.2 155.8 Q 350.0 149.5 355.0 145.5 Q 360.0 141.5 368.5 139.0 Q 377.0 136.5 504.0 136.2 L 631.0 136.0 L 631.0 252.5 L 631.0 369.0 L 661.5 369.2 Q 692.0 369.5 692.2 369.8 L 692.5 370.0 L 692.8 369.8 L 693.0 369.5 L 693.2 369.2 L 693.5 369.0 L 693.8 252.5 L 694.0 136.0 L 719.0 136.0 L 744.0 136.0 L 744.0 196.0 L 744.0 256.0 L 869.5 256.2 Q 995.0 256.5 996.5 256.2 L 998.0 256.0 L 998.0 129.0 Q 998.0 2.0 994.5 1.5 L 991.0 1.0 L 991.0 0.5 z  " />
  <path
    style="opacity:1;fill:#FFFFFF;fill-rule:evenodd;stroke:#FFFFFF;stroke-width:0.5px;stroke-linecap:butt;stroke-linejoin:miter;stroke-opacity:1;"
    d="M 0.0 42.5 L 0.0 0.0 L 495.5 0.0 L 991.0 0.0 L 991.0 0.5 L 991.0 1.0 L 990.8 1.5 Q 990.5 2.0 867.2 2.0 Q 744.0 2.0 744.0 43.0 L 744.0 84.0 L 560.0 84.2 Q 376.0 84.5 365.5 85.0 Q 355.0 85.5 344.0 88.0 Q 333.0 90.5 323.5 94.5 Q 314.0 98.5 306.5 104.5 Q 299.0 110.5 293.2 120.2 Q 287.5 130.0 284.5 142.0 Q 281.5 154.0 281.5 170.0 Q 281.5 186.0 284.0 197.0 Q 286.5 208.0 291.0 216.0 Q 295.5 224.0 301.8 230.2 Q 308.0 236.5 317.0 241.0 Q 326.0 245.5 337.5 248.5 Q 349.0 251.5 407.0 253.0 Q 465.0 254.5 471.0 256.5 Q 477.0 258.5 481.2 263.2 Q 485.5 268.0 486.0 281.0 Q 486.5 294.0 485.5 297.0 Q 484.5 300.0 480.8 305.2 Q 477.0 310.5 469.5 313.5 Q 462.0 316.5 345.5 317.2 Q 229.0 318.0 209.8 285.0 L 190.5 252.0 L 190.5 251.0 L 190.5 250.0 L 190.8 249.8 L 191.0 249.5 L 193.0 249.0 Q 195.0 248.5 204.0 244.5 Q 213.0 240.5 219.2 235.2 Q 225.5 230.0 231.2 221.8 Q 237.0 213.5 240.8 202.2 Q 244.5 191.0 244.5 169.5 Q 244.5 148.0 242.5 140.0 Q 240.5 132.0 236.0 123.5 Q 231.5 115.0 225.2 108.8 Q 219.0 102.5 208.0 97.0 Q 197.0 91.5 184.0 88.5 Q 171.0 85.5 86.0 85.0 L 1.0 84.5 L 0.5 84.8 L 0.0 85.0 L 0.0 42.5 z  " />
  <path
    style="opacity:1;fill: #00c853;fill-rule:evenodd;stroke: #00c853;stroke-width:0.5px;stroke-linecap:butt;stroke-linejoin:miter;stroke-opacity:1;"
    d="M 0.5 84.8 L 1.0 84.5 L 86.0 85.0 Q 171.0 85.5 184.0 88.5 Q 197.0 91.5 208.0 97.0 Q 219.0 102.5 225.2 108.8 Q 231.5 115.0 236.0 123.5 Q 240.5 132.0 242.5 140.0 Q 244.5 148.0 244.5 169.5 Q 244.5 191.0 240.8 202.2 Q 237.0 213.5 231.2 221.8 Q 225.5 230.0 219.2 235.2 Q 213.0 240.5 204.0 244.5 Q 195.0 248.5 193.0 249.0 L 191.0 249.5 L 190.8 249.8 L 190.5 250.0 L 190.5 251.0 L 190.5 252.0 L 209.8 285.0 Q 229.0 318.0 345.5 317.2 Q 462.0 316.5 469.5 313.5 Q 477.0 310.5 480.8 305.2 Q 484.5 300.0 485.5 297.0 Q 486.5 294.0 486.0 281.0 Q 485.5 268.0 481.2 263.2 Q 477.0 258.5 471.0 256.5 Q 465.0 254.5 407.0 253.0 Q 349.0 251.5 337.5 248.5 Q 326.0 245.5 317.0 241.0 Q 308.0 236.5 301.8 230.2 Q 295.5 224.0 291.0 216.0 Q 286.5 208.0 284.0 197.0 Q 281.5 186.0 281.5 170.0 Q 281.5 154.0 284.5 142.0 Q 287.5 130.0 293.2 120.2 Q 299.0 110.5 306.5 104.5 Q 314.0 98.5 323.5 94.5 Q 333.0 90.5 344.0 88.0 Q 355.0 85.5 365.5 85.0 Q 376.0 84.5 560.0 84.2 L 744.0 84.0 L 766.0 84.8 Q 788.0 85.5 788.2 85.8 Q 788.5 86.0 788.5 110.5 L 788.5 135.0 L 788.2 135.2 L 788.0 135.5 L 766.0 135.8 L 744.0 136.0 L 719.0 136.0 L 694.0 136.0 L 693.8 252.5 L 693.5 369.0 L 693.2 369.2 L 693.0 369.5 L 692.8 369.8 L 692.5 370.0 L 692.2 369.8 Q 692.0 369.5 661.5 369.2 L 631.0 369.0 L 631.0 252.5 L 631.0 136.0 L 504.0 136.2 Q 377.0 136.5 368.5 139.0 Q 360.0 141.5 355.0 145.5 Q 350.0 149.5 347.2 155.8 Q 344.5 162.0 344.0 170.5 Q 343.5 179.0 344.5 182.5 Q 345.5 186.0 349.8 191.2 Q 354.0 196.5 361.0 199.5 Q 368.0 202.5 429.0 204.0 Q 490.0 205.5 501.5 208.5 Q 513.0 211.5 521.5 216.5 Q 530.0 221.5 536.0 229.5 Q 542.0 237.5 545.8 248.8 Q 549.5 260.0 550.0 279.0 Q 550.5 298.0 548.5 308.5 Q 546.5 319.0 542.0 328.5 Q 537.5 338.0 530.2 345.2 Q 523.0 352.5 516.2 356.2 Q 509.5 360.0 495.2 363.8 Q 481.0 367.5 336.5 368.0 Q 192.0 368.5 147.8 290.2 L 103.5 212.0 L 103.0 211.0 L 102.5 210.0 L 102.2 208.5 L 102.0 207.0 L 103.0 207.2 L 104.0 207.5 L 104.5 207.5 L 105.0 207.5 L 129.5 207.0 Q 154.0 206.5 162.5 204.0 Q 171.0 201.5 175.2 198.2 Q 179.5 195.0 182.0 190.0 Q 184.5 185.0 185.0 174.0 Q 185.5 163.0 183.5 156.5 Q 181.5 150.0 177.5 146.0 Q 173.5 142.0 165.8 139.8 Q 158.0 137.5 109.0 136.8 L 60.0 136.0 L 59.8 251.0 Q 59.5 366.0 59.2 367.5 L 59.0 369.0 L 29.5 369.0 L 0.0 369.0 L 0.0 227.0 L 0.0 85.0 L 0.5 84.8 z  " />
</svg>